<?xml version="1.0" encoding="utf-8"?>
<!-- Generator: Adobe Illustrator 21.1.0, SVG Export Plug-In . SVG Version: 6.00 Build 0)  -->
<svg version="1.1" id="Layer_1" xmlns="http://www.w3.org/2000/svg" xmlns:xlink="http://www.w3.org/1999/xlink" x="0px" y="0px"
	 viewBox="0 0 75 75" style="enable-background:new 0 0 75 75;" xml:space="preserve">
<style type="text/css">
	.st0{fill:#DC543E;}
	.st1{fill:#FFFFFF;}
</style>
<g>
	<circle class="st0" cx="37.5" cy="37.5" r="37.5"/>
	<g>
		<path class="st1" d="M17.6,42.7c0-5,1.1-9.7,3.2-14c2.2-4.3,5.1-7.6,8.7-9.8c3.6-2.2,7.7-3.4,12.4-3.4c4.5,0,8.4,0.9,12,2.7
			L51,23.9c-1.3-0.7-2.7-1.2-4.1-1.7c-1.5-0.5-3.1-0.7-5-0.7c-3.2,0-6,0.9-8.5,2.6c-2.5,1.7-4.5,4.2-6,7.5
			c-1.5,3.3-2.2,6.9-2.2,10.8c0,3.5,0.8,6.1,2.5,7.9c1.7,1.8,4.2,2.8,7.5,2.8c2.9,0,6.3-0.6,10.1-1.9v5.9c-3.7,1.3-7.5,1.9-11.5,1.9
			c-5.1,0-9.1-1.4-12-4.3C19,51.9,17.6,47.9,17.6,42.7z"/>
	</g>
</g>
</svg>
