<?xml version="1.0" encoding="utf-8"?>
<!-- Generator: Adobe Illustrator 21.1.0, SVG Export Plug-In . SVG Version: 6.00 Build 0)  -->
<svg version="1.1" id="Layer_1" xmlns="http://www.w3.org/2000/svg" xmlns:xlink="http://www.w3.org/1999/xlink" x="0px" y="0px"
	 viewBox="0 0 75 75" style="enable-background:new 0 0 75 75;" xml:space="preserve">
<style type="text/css">
	.st0{fill:#3785B1;}
	.st1{fill:#FFFFFF;}
</style>
<g>
	<circle class="st0" cx="37.5" cy="37.5" r="37.5"/>
	<g>
		<path class="st1" d="M36.5,18.1c0,0,18.4-3.7,27.5,7.5c0,0,8.4,9.5-5.7,21.6l4.3,2.9l-17,4.5c0,0,12.7-5.8,12.7-18.5
			C58.4,36.1,59.3,18.9,36.5,18.1z"/>
		<path class="st1" d="M29.4,20.4c0,0-16.5,7.2-12,24.3c0,0,3.1,12.4,20.9,12.3c0,0-22.1,3.9-28.9-10.2c0,0-4.8-8.5,7-19l-4.5-2.8
			L29.4,20.4z"/>
		<g>
			<path class="st1" d="M35.2,46.1c-4-1.6-2.9-6.7-2.9-6.7c8.7-1.4,11.1-3.3,11.1-3.3c6.7-4.4,2.3-8.6,2.3-8.6
				c-4.2-3.5-11.2-0.1-11.2-0.1c-5.7,2.3-7.7,7.9-7.7,7.9c-3.5,11.4,5.8,12.8,5.8,12.8c8.3,1.3,12.9-4.8,12.9-4.8l-1-0.8
				C39.1,48,35.2,46.1,35.2,46.1z M38.1,27.8c0,0,2.7-0.9,3.4,1.6c0,0,0.9,4-3.2,6.8c0,0-1.2,1.4-5.8,2C32.5,38.1,34,29.7,38.1,27.8
				z"/>
		</g>
	</g>
</g>
</svg>
