<?xml version="1.0" encoding="utf-8"?>
<!-- Generator: Adobe Illustrator 21.1.0, SVG Export Plug-In . SVG Version: 6.00 Build 0)  -->
<svg version="1.1" id="Layer_1" xmlns="http://www.w3.org/2000/svg" xmlns:xlink="http://www.w3.org/1999/xlink" x="0px" y="0px"
	 viewBox="0 0 75 75" style="enable-background:new 0 0 75 75;" xml:space="preserve">
<style type="text/css">
	.st0{fill:#464443;}
	.st1{fill:#FBBA1D;}
	.st2{fill:#DF9026;}
	.st3{fill:#FFC841;}
</style>
<g>
	<circle class="st0" cx="37.5" cy="37.5" r="37.5"/>
	<g>
		<path class="st1" d="M21.1,44.5l23.7-23.3c2.5-2.5,6.6-2.5,9.1,0.1c0,0,0,0,0,0l-10.8-11c-2.5-2.6-6.6-2.6-9.1-0.1c0,0,0,0,0,0
			L10.3,33.5c-2.6,2.5-2.6,6.6-0.1,9.1c0,0,0,0,0,0l10.8,11C18.5,51.1,18.6,47,21.1,44.5C21.1,44.5,21.1,44.5,21.1,44.5z"/>
		<path class="st2" d="M30.2,53.8l23.7-23.3c2.6-2.5,2.6-6.6,0.1-9.1c0,0,0,0,0,0l10.8,11c2.5,2.5,2.5,6.6-0.1,9.1c0,0,0,0,0,0
			L40.9,64.7c-2.5,2.5-6.6,2.5-9.1-0.1c0,0,0,0,0,0L21,53.7C23.5,56.2,27.6,56.3,30.2,53.8z"/>
		<path class="st3" d="M37.9,15.5l6.2,6.4l0.7-0.6c2.5-2.5,6.6-2.5,9.1,0.1c0,0,0,0,0,0l-10.8-11c-2.5-2.6-6.6-2.6-9.1-0.1
			c0,0,0,0,0,0l-0.7,0.6L37.9,15.5z"/>
	</g>
</g>
</svg>
