<?xml version="1.0" encoding="utf-8"?>
<!-- Generator: Adobe Illustrator 21.1.0, SVG Export Plug-In . SVG Version: 6.00 Build 0)  -->
<svg version="1.1" id="Layer_1" xmlns="http://www.w3.org/2000/svg" xmlns:xlink="http://www.w3.org/1999/xlink" x="0px" y="0px"
	 viewBox="0 0 75 75" style="enable-background:new 0 0 75 75;" xml:space="preserve">
<style type="text/css">
	.st0{fill:#9C5C8F;}
	.st1{fill:#FFFFFF;}
</style>
<g>
	<circle class="st0" cx="37.5" cy="37.5" r="37.5"/>
	<path class="st1" d="M13.5,17.7c0.7-0.9,1.7-1.4,3-1.5c2.5-0.2,3.8,1,4.2,3.5c1.5,10,3.1,18.5,4.9,25.5l10.5-20
		c1-1.8,2.2-2.8,3.6-2.9c2.1-0.1,3.4,1.2,3.9,4c1.2,6.4,2.7,11.8,4.6,16.4c1.2-12.2,3.4-21,6.3-26.4c0.7-1.3,1.8-2,3.2-2.1
		c1.1-0.1,2.1,0.2,3,1c0.9,0.7,1.4,1.6,1.5,2.7c0,0.9-0.1,1.6-0.5,2.3c-1.9,3.5-3.4,9.3-4.7,17.3c-1.2,7.8-1.6,13.9-1.3,18.3
		c0.1,1.2-0.1,2.3-0.6,3.2c-0.6,1.1-1.4,1.6-2.5,1.7c-1.2,0.1-2.5-0.5-3.8-1.8c-4.5-4.6-8-11.4-10.6-20.5
		c-3.1,6.2-5.4,10.8-6.9,13.8c-2.8,5.4-5.2,8.2-7.3,8.4c-1.3,0.1-2.4-1-3.4-3.3c-2.5-6.3-5.1-18.5-7.9-36.5
		C12.6,19.7,12.9,18.6,13.5,17.7L13.5,17.7z"/>
</g>
</svg>
