<?xml version="1.0" encoding="utf-8"?>
<!-- Generator: Adobe Illustrator 21.1.0, SVG Export Plug-In . SVG Version: 6.00 Build 0)  -->
<svg version="1.1" id="Layer_1" xmlns="http://www.w3.org/2000/svg" xmlns:xlink="http://www.w3.org/1999/xlink" x="0px" y="0px"
	 viewBox="0 0 75 75" style="enable-background:new 0 0 75 75;" xml:space="preserve">
<style type="text/css">
	.st0{fill:#FFFFFF;}
	.st1{fill:#464443;}
</style>
<g>
	<circle class="st0" cx="37.5" cy="37.5" r="37.5"/>
	<g>
		<path class="st1" d="M5.3,37.5c0,12.7,7.4,23.7,18.1,29l-15.3-42C6.3,28.4,5.3,32.8,5.3,37.5z"/>
		<path class="st1" d="M59.2,35.9c0-4-1.4-6.7-2.7-8.9c-1.6-2.6-3.2-4.9-3.2-7.5c0-3,2.2-5.7,5.4-5.7c0.1,0,0.3,0,0.4,0
			c-5.7-5.2-13.3-8.4-21.7-8.4c-11.2,0-21.1,5.8-26.9,14.5c0.8,0,1.5,0,2.1,0c3.4,0,8.6-0.4,8.6-0.4c1.7-0.1,1.9,2.4,0.2,2.6
			c0,0-1.7,0.2-3.7,0.3l11.7,34.8l7-21.1l-5-13.7c-1.7-0.1-3.4-0.3-3.4-0.3c-1.7-0.1-1.5-2.8,0.2-2.6c0,0,5.3,0.4,8.5,0.4
			c3.4,0,8.6-0.4,8.6-0.4c1.7-0.1,1.9,2.4,0.2,2.6c0,0-1.7,0.2-3.7,0.3L53.6,57l3.2-10.7C58.2,41.8,59.2,38.6,59.2,35.9z"/>
		<path class="st1" d="M38.1,40.3l-9.7,28c2.9,0.8,5.9,1.3,9.1,1.3c3.7,0,7.3-0.6,10.7-1.8c-0.1-0.1-0.2-0.3-0.2-0.4L38.1,40.3z"/>
		<path class="st1" d="M65.7,22.1c0.1,1,0.2,2.1,0.2,3.3c0,3.3-0.6,6.9-2.4,11.5l-9.8,28.4c9.6-5.6,16-15.9,16-27.8
			C69.7,31.9,68.2,26.6,65.7,22.1z"/>
		<path class="st1" d="M37.5,0C16.8,0,0,16.8,0,37.5C0,58.2,16.8,75,37.5,75C58.2,75,75,58.2,75,37.5C75,16.8,58.2,0,37.5,0z
			 M37.5,73.3c-19.7,0-35.8-16.1-35.8-35.8c0-19.7,16.1-35.8,35.8-35.8c19.7,0,35.8,16.1,35.8,35.8C73.3,57.2,57.2,73.3,37.5,73.3z"
			/>
	</g>
</g>
</svg>
